<svg width="230" height="230" xmlns="http://www.w3.org/2000/svg">

 <g>
  <g id="svg_1">
   <rect x="-1" y="-1" width="232" height="232" id="canvas_background" fill="#0000"/>
  </g>
  <g stroke="null" id="svg_3">
   <path stroke="null" id="svg_6" fill="#8867c8" d="m199.04544,80.35028a91.08315,91.08315 0 0 1 -89.31566,76.73084a66.15854,66.15854 0 0 1 -13.05528,-0.79227a40.00877,40.00877 0 0 1 -33.27366,-37.71527a38.85221,38.85221 0 0 1 77.69299,-0.54886c0.16335,6.43944 -2.62674,12.08822 -8.36048,12.25158c-6.12579,0 -8.99756,-4.37137 -8.99756,-10.26192l0,-16.36812a10.02507,10.02507 0 0 0 -9.94829,-10.03486l-13.72177,0a23.88405,23.88405 0 1 0 17.64228,39.8013l0.48026,-0.71549l0.48026,0.7939a16.89574,16.89574 0 0 0 14.40786,6.86089a19.04386,19.04386 0 0 0 17.64228,-19.90636a51.79968,51.79968 0 0 0 -1.42118,-12.6518a48.47542,48.47542 0 0 0 -95.84331,10.49716a49.0831,49.0831 0 0 0 47.83834,48.47542s3.5938,0.32671 7.64498,0.2336a103.46052,103.46052 0 0 0 55.48333,-16.55271c0.23523,-0.16335 0.47046,0.16336 0.31364,0.40185a81.43871,81.43871 0 0 1 -63.44031,25.94231a57.24755,57.24755 0 0 1 -58.26689,-58.73735a59.24374,59.24374 0 0 1 23.79747,-47.44629a58.02839,58.02839 0 0 1 34.23418,-11.30086l18.41657,0a51.81602,51.81602 0 0 0 38.22493,-16.87614a0.71549,0.71549 0 0 1 0.38878,-0.22216a0.73019,0.73019 0 0 1 0.78247,0.34141a0.73999,0.73999 0 0 1 0.10128,0.43942a51.9467,51.9467 0 0 1 -8.03541,23.23716a0.70406,0.70406 0 0 0 -0.08658,0.39859a0.71875,0.71875 0 0 0 0.47373,0.61911a0.71386,0.71386 0 0 0 0.40512,0.02124a55.68425,55.68425 0 0 0 38.71499,-31.92272a1.0177,1.0177 0 0 1 0.35775,-0.34467a0.98012,0.98012 0 0 1 0.96216,0a1.00464,1.00464 0 0 1 0.35775,0.34467a70.5691,70.5691 0 0 1 6.92296,45.00741l-0.00001,-0.00002zm-97.80028,23.09178a14.32455,14.32455 0 1 0 14.32292,14.32292l0,-13.37219a1.0324,1.0324 0 0 0 -0.98012,-0.98012l-13.3428,0.0294l0,-0.00001z"/>
  </g>
  <rect stroke="#8867c8" id="svg_4" fill="#8867c8" stroke-width="8" stroke-opacity="null" x="9" y="21" width="10" height="196" rx="2"/>
  <rect stroke="#8867c8" id="svg_5" fill="#8867c8" stroke-width="8" stroke-opacity="null" x="12" y="207" width="208" height="10" rx="2"/>
 </g>
</svg>